<svg aria-hidden="true" style="position: absolute; width: 0; height: 0; overflow: hidden;" version="1.1" xmlns="http://www.w3.org/2000/svg" xmlns:xlink="http://www.w3.org/1999/xlink">

<path fill="#DDBD5A" d="M9.23 14.771h7.787c0.211 0 0.211 0 0.127 0.196-0.304 0.708-0.61 1.415-0.909 2.125-0.047 0.111-0.103 0.167-0.229 0.151-0.037-0.003-0.079-0.004-0.122-0.004s-0.086 0.001-0.128 0.004l0.006-0c-0.409 0-0.41 0-0.552 0.376q-2.583 6.837-5.167 13.677c-0.046 0.122-0.093 0.244-0.174 0.348-0.402 0.523-1.059 0.463-1.362-0.131-0.091-0.178-0.154-0.37-0.225-0.558q-2.563-6.779-5.121-13.56c-0.047-0.125-0.104-0.168-0.233-0.159-0.168 0.011-0.337-0.003-0.506 0.005-0.103 0.005-0.152-0.033-0.193-0.128q-0.465-1.102-0.944-2.198c-0.061-0.139-0.014-0.147 0.108-0.147q2.628 0.004 5.257 0.002h2.579z"></path>
<path fill="tomato" d="M5.538 13.549q-2.514 0-5.028 0.003c-0.123 0-0.179-0.033-0.22-0.153-0.71-2.078-0.087-4.372 1.563-5.834 0.907-0.803 1.954-1.26 3.15-1.384 2.29-0.239 4.558 1.054 5.535 3.143 0.425 0.907 0.601 1.856 0.513 2.851-0.036 0.417-0.14 0.822-0.267 1.222-0.037 0.117-0.092 0.156-0.217 0.156q-2.515-0.007-5.028-0.003z"></path>
<path fill="teal" d="M9.751 5.932c0.966-0.668 2.016-1.008 3.177-1.001 2.668 0.014 4.922 1.863 5.427 4.49 0.274 1.417 0.025 2.753-0.738 3.988-0.064 0.103-0.133 0.145-0.26 0.145-1.583-0.005-3.167-0.003-4.75-0.003-0.191 0-0.188 0-0.149-0.181 0.641-2.994-0.274-5.433-2.623-7.361-0.023-0.022-0.047-0.043-0.084-0.076z"></path>
<path fill="blue" d="M13.060 3.33c-0.044-0.001-0.096-0.002-0.149-0.002-0.866 0-1.696 0.155-2.464 0.438l0.049-0.016c-0.803 0.284-1.516 0.722-2.172 1.26-0.077 0.063-0.137 0.075-0.229 0.038-1.016-0.401-2.070-0.566-3.159-0.47-0.848 0.074-1.629 0.289-2.345 0.621l0.043-0.018c-0.134 0.061-0.148 0.035-0.137-0.098 0.096-1.174 0.547-2.228 1.245-3.070l-0.007 0.009c0.924-1.133 2.129-1.793 3.573-1.975 1.569-0.198 2.98 0.227 4.211 1.222 0.628 0.511 1.13 1.153 1.467 1.887l0.013 0.033c0.020 0.038 0.033 0.078 0.060 0.141z"></path>

</svg>
